<svg xmlns="http://www.w3.org/2000/svg" viewBox="0 0 64 64" role="img" aria-label="Sahaya">
  <circle cx="32.0" cy="32.0" r="32.0" fill="rgb(114, 129, 86)"/>
  <g fill="rgb(251, 249, 241)" transform="translate(17.91 46.72) scale(0.02726 -0.02726)">
    <path transform="translate(0.0 0)" d="M562 -30Q358 -30 232.5 62.5Q107 155 80 324L358 366Q375 290 433.5 247.0Q492 204 582 204Q656 204 696.0 232.5Q736 261 736 312Q736 344 720.0 363.5Q704 383 648.5 402.0Q593 421 476 452Q344 486 265.0 528.0Q186 570 151.0 628.5Q116 687 116 770Q116 874 169.0 950.5Q222 1027 318.5 1068.5Q415 1110 546 1110Q673 1110 771.0 1071.0Q869 1032 929.5 960.0Q990 888 1004 790L726 740Q719 800 674.0 835.0Q629 870 552 876Q477 881 431.5 856.0Q386 831 386 784Q386 756 405.5 737.0Q425 718 486.5 698.0Q548 678 674 646Q797 614 871.5 571.5Q946 529 980.0 469.5Q1014 410 1014 326Q1014 160 894.0 65.0Q774 -30 562 -30Z"/>
  </g>
</svg>
